#!OML:ASF E:\motion texture\Top Level 1\Subject 1\Session 1\male.ASF
:FULLY-SPECIFIED
:DEGREES
207
root 15.6568 17.4274 2.77416 55.2019 -75.5665 -43.8279
lowerback 2.13417 5.66248 0.855933
upperback 1.1097 7.5415 -1.25843
thorax 0.230036 3.77275 -1.88714
lowerneck -17.4044 -5.64945 -9.4142
upperneck 4.97114 -7.25869 15.7948
head 5.32069 -2.81709 5.84145
rclavicle 1.59028e-014 -3.33958e-014
rhumerus -14.119 42.1834 -98.1813
rradius 83.9645
rwrist -12.1367
rhand -15.0507 -37.8886
rfingers 7.12502
rthumb 11.1158 -67.5742
lclavicle 1.59028e-014 -3.33958e-014
lhumerus -43.3137 -22.0423 98.6036
lradius 101.581
lwrist 39.8585
lhand -2.55664 28.5674
lfingers 7.12502
lthumb 23.1394 57.1977
rfemur -17.7681 -9.9824 35.1469
rtibia 51.6045
rfoot -2.02122 -6.85734
rtoes -4.94868
lfemur -39.1466 -1.87038 -11.349
ltibia 25.3374
lfoot -2.26002 7.36185
ltoes 0.568478
208
root 15.4746 17.436 2.79531 53.5689 -75.43 -42.3209
lowerback 2.12924 5.69877 0.74037
upperback 1.07794 7.58801 -1.24687
thorax 0.18545 3.79497 -1.81534
lowerneck -17.4082 -5.77028 -9.54083
upperneck 5.0986 -7.4108 15.8277
head 5.38661 -2.88693 5.85639
rclavicle 6.16232e-014 3.73715e-014
rhumerus -14.4336 41.8286 -98.5047
rradius 83.5169
rwrist -13.9599
rhand -14.8433 -38.6537
rfingers 7.12502
rthumb 11.3159 -68.3284
lclavicle 6.16232e-014 3.73715e-014
lhumerus -43.6453 -21.8723 98.5907
lradius 100.988
lwrist 39.5293
lhand -2.22369 28.2819
lfingers 7.12502
lthumb 23.4588 56.8717
rfemur -18.3765 -10.1918 34.8087
rtibia 52.8001
rfoot -1.1559 -7.12581
rtoes -4.54648
lfemur -38.7369 -2.15511 -11.7053
ltibia 25.8262
lfoot -2.37534 6.92173
ltoes 1.10636
209
root 15.2935 17.4459 2.81612 51.8748 -75.262 -40.7526
lowerback 2.13497 5.72998 0.62824
upperback 1.05126 7.62768 -1.2367
thorax 0.140354 3.81386 -1.74767
lowerneck -17.4094 -5.89576 -9.66405
upperneck 5.21834 -7.56947 15.8602
head 5.45075 -2.9603 5.86964
rclavicle -1.18078e-013 1.66979e-014
rhumerus -14.7164 41.4997 -98.7965
rradius 83.0752
rwrist -15.7088
rhand -14.6286 -39.3881
rfingers 7.12502
rthumb 11.5229 -69.0513
lclavicle -1.18078e-013 1.66979e-014
lhumerus -43.9442 -21.7006 98.5716
lradius 100.358
lwrist 39.212
lhand -1.88692 27.9984
lfingers 7.12502
lthumb 23.7818 56.5466
rfemur -19.0262 -10.4017 34.4775
rtibia 53.9637
rfoot -0.350639 -7.39485
rtoes -4.11179
lfemur -38.2964 -2.45058 -12.0573
ltibia 26.2894
lfoot -2.51518 6.47025
ltoes 1.61701
210
root 15.1138 17.4572 2.8366 50.1276 -75.0604 -39.1284
lowerback 2.15172 5.7578 0.519494
upperback 1.02735 7.66274 -1.22849
thorax 0.0923737 3.8305 -1.68487
lowerneck -17.4037 -6.02843 -9.78925
upperneck 5.32837 -7.73763 15.8971
head 5.51265 -3.0387 5.88332
rclavicle -7.55382e-014 4.21423e-014
rhumerus -14.9717 41.1942 -99.0564
rradius 82.641
rwrist -17.3771
rhand -14.4092 -40.0891
rfingers 7.12502
rthumb 11.7345 -69.7405
lclavicle -7.55382e-014 4.21423e-014
lhumerus -44.2136 -21.5296 98.5491
lradius 99.6861
lwrist 38.9103
lhand -1.53815 27.7125
lfingers 7.12502
lthumb 24.1163 56.2168
rfemur -19.7171 -10.6142 34.1522
rtibia 55.0879
rfoot 0.386358 -7.65845
rtoes -3.65221
lfemur -37.8279 -2.76129 -12.4041
ltibia 26.7204
lfoot -2.67843 6.01224
ltoes 2.11258
211
root 14.9355 17.4696 2.85672 48.3415 -74.8245 -37.4624
lowerback 2.17726 5.78218 0.413487
upperback 1.00736 7.69313 -1.22184
thorax 0.043837 3.84486 -1.62587
lowerneck -17.3922 -6.16808 -9.91653
upperneck 5.42874 -7.91479 15.9376
head 5.57244 -3.12187 5.89721
rclavicle -3.22031e-014 2.38542e-015
rhumerus -15.1986 40.9172 -99.2829
rradius 82.2142
rwrist -18.959
rhand -14.1775 -40.7525
rfingers 7.12502
rthumb 11.9579 -70.3909
lclavicle -3.22031e-014 2.38542e-015
lhumerus -44.4545 -21.3557 98.5212
lradius 98.9729
lwrist 38.6222
lhand -1.17923 27.422
lfingers 7.12502
lthumb 24.4604 55.8802
rfemur -20.4434 -10.829 33.8315
rtibia 56.1629
rfoot 1.05088 -7.91448
rtoes -3.16074
lfemur -37.3291 -3.08573 -12.7458
ltibia 27.111
lfoot -2.86545 5.54873
ltoes 2.5835
212
root 14.7585 17.4831 2.87653 46.5373 -74.5545 -35.7743
lowerback 2.20946 5.80328 0.310006
upperback 0.991773 7.71903 -1.21559
thorax -0.00372623 3.85705 -1.56909
lowerneck -17.3758 -6.31455 -10.048
upperneck 5.51903 -8.10034 15.9826
head 5.63019 -3.20946 5.91197
rclavicle 2.38542e-014 1.98785e-014
rhumerus -15.396 40.6749 -99.4737
rradius 81.7944
rwrist -20.4484
rhand -13.9282 -41.3705
rfingers 7.12502
rthumb 12.1983 -70.9948
lclavicle 2.38542e-014 1.98785e-014
lhumerus -44.6654 -21.1738 98.4882
lradius 98.2159
lwrist 38.3447
lhand -0.81216 27.1329
lfingers 7.12502
lthumb 24.8122 55.5432
rfemur -21.2025 -11.0453 33.5152
rtibia 57.1817
rfoot 1.63788 -8.1598
rtoes -2.65199
lfemur -36.8008 -3.42283 -13.0811
ltibia 27.456
lfoot -3.0747 5.08369
ltoes 3.02417
213
root 14.5829 17.4976 2.89604 44.7344 -74.2514 -34.0838
lowerback 2.24762 5.82299 0.208181
upperback 0.979949 7.74295 -1.20914
thorax -0.0507 3.86829 -1.51347
lowerneck -17.3527 -6.4683 -10.182
upperneck 5.59891 -8.29503 16.0297
head 5.68548 -3.30202 5.92652
rclavicle 8.46823e-014 7.15625e-015
rhumerus -15.5654 40.4684 -99.6271
rradius 81.3822
rwrist -21.8414
rhand -13.6638 -41.9393
rfingers 7.12502
rthumb 12.4532 -71.5482
lclavicle 8.46823e-014 7.15625e-015
lhumerus -44.8514 -20.9846 98.4507
lradius 97.4175
lwrist 38.0787
lhand -0.439903 26.8501
lfingers 7.12502
lthumb 25.169 55.2107
rfemur -21.9889 -11.261 33.2027
rtibia 58.1355
rfoot 2.14136 -8.39397
rtoes -2.13722
lfemur -36.2417 -3.77135 -13.4083
ltibia 27.7499
lfoot -3.30517 4.61972
ltoes 3.43908
214
root 14.4087 17.513 2.91525 42.9479 -73.916 -32.4052
lowerback 2.29535 5.84063 0.123572
upperback 0.968957 7.76419 -1.21485
thorax -0.098315 3.87833 -1.48036
lowerneck -17.3196 -6.62716 -10.3087
upperneck 5.66663 -8.49955 16.087
head 5.73741 -3.3994 5.94174
rclavicle -1.23246e-014 1.98785e-014
rhumerus -15.7065 40.2923 -99.7611
rradius 80.9764
rwrist -23.1337
rhand -13.3835 -42.4511
rfingers 7.12502
rthumb 12.7235 -72.0435
lclavicle -1.23246e-014 1.98785e-014
lhumerus -45.0159 -20.7917 98.3866
lradius 96.5789
lwrist 37.8138
lhand -0.0509421 26.5754
lfingers 7.12502
lthumb 25.5416 54.8831
rfemur -22.7983 -11.4755 32.893
rtibia 59.017
rfoot 2.56241 -8.61601
rtoes -1.6118
lfemur -35.6529 -4.12982 -13.7272
ltibia 27.9904
lfoot -3.55631 4.16035
ltoes 3.82158
215
root 14.2359 17.5291 2.93414 41.197 -73.5478 -30.7558
lowerback 2.34568 5.85626 0.0400479
upperback 0.961975 7.78269 -1.21684
thorax -0.143758 3.88702 -1.44413
lowerneck -17.2836 -6.79276 -10.4423
upperneck 5.72548 -8.71134 16.1458
head 5.7879 -3.50073 5.95742
rclavicle -1.66979e-014 -3.97569e-015
rhumerus -15.8185 40.1646 -99.852
rradius 80.5789
rwrist -24.3281
rhand -13.0835 -42.8997
rfingers 7.12502
rthumb 13.0127 -72.4739
lclavicle -1.66979e-014 -3.97569e-015
lhumerus -45.1555 -20.5785 98.3154
lradius 95.7006
lwrist 37.5527
lhand 0.338413 26.3165
lfingers 7.12502
lthumb 25.9145 54.5703
rfemur -23.6294 -11.6873 32.5881
rtibia 59.8195
rfoot 2.90177 -8.82744
rtoes -1.08639
lfemur -35.0391 -4.49588 -14.0343
ltibia 28.1776
lfoot -3.8258 3.70784
ltoes 4.17742
216
root 14.0645 17.5458 2.95275 39.489 -73.1499 -29.1429
lowerback 2.39927 5.87192 -0.0422032
upperback 0.957298 7.80109 -1.21774
thorax -0.188673 3.8957 -1.40775
lowerneck -17.2409 -6.96508 -10.5796
upperneck 5.77451 -8.93144 16.2068
head 5.83613 -3.6066 5.9731
rclavicle 2.74323e-014 1.90833e-014
rhumerus -15.9036 40.0827 -99.9002
rradius 80.1912
rwrist -25.4281
rhand -12.7674 -43.2854
rfingers 7.12502
rthumb 13.3174 -72.8399
lclavicle 2.74323e-014 1.90833e-014
lhumerus -45.2754 -20.3482 98.2351
lradius 94.7863
lwrist 37.3022
lhand 0.720328 26.0805
lfingers 7.12502
lthumb 26.2801 54.2803
rfemur -24.4769 -11.8956 32.2843
rtibia 60.5363
rfoot 3.15853 -9.02911
rtoes -0.547924
lfemur -34.4011 -4.86654 -14.3325
ltibia 28.3113
lfoot -4.11034 3.264
ltoes 4.49384
217
root 13.8945 17.563 2.97108 37.8298 -72.7249 -27.5715
lowerback 2.45565 5.88716 -0.124038
upperback 0.954939 7.81882 -1.21796
thorax -0.23286 3.90407 -1.3711
lowerneck -17.1932 -7.14375 -10.7216
upperneck 5.81444 -9.15925 16.2709
head 5.88263 -3.71659 5.98929
rclavicle -1.31198e-014 4.45278e-014
rhumerus -15.9601 40.0466 -99.9049
rradius 79.8123
rwrist -26.4271
rhand -12.4217 -43.6089
rfingers 7.12502
rthumb 13.6506 -73.1413
lclavicle -1.31198e-014 4.45278e-014
lhumerus -45.3751 -20.0953 98.1408
lradius 93.8369
lwrist 37.056
lhand 1.09605 25.8668
lfingers 7.12502
lthumb 26.6398 54.0125
rfemur -25.3353 -12.0992 31.9789
rtibia 61.1597
rfoot 3.33614 -9.22129
rtoes -0.00417824
lfemur -33.7409 -5.23963 -14.623
ltibia 28.3922
lfoot -4.40728 2.82868
ltoes 4.78922
218
root 13.726 17.5806 2.9891 36.2301 -72.2742 -26.0515
lowerback 2.51321 5.90312 -0.204569
upperback 0.954408 7.8374 -1.21774
thorax -0.275741 3.91289 -1.33479
lowerneck -17.1391 -7.32864 -10.8655
upperneck 5.84399 -9.3949 16.3363
head 5.92663 -3.8309 6.0049
rclavicle -5.32743e-014 2.46493e-014
rhumerus -15.9879 40.0541 -99.8644
rradius 79.4442
rwrist -27.3367
rhand -12.0578 -43.8632
rfingers 7.12502
rthumb 14.0013 -73.3717
lclavicle -5.32743e-014 2.46493e-014
lhumerus -45.4548 -19.8206 98.03
lradius 92.8543
lwrist 36.815
lhand 1.45924 25.686
lfingers 7.12502
lthumb 26.9873 53.7784
rfemur -26.2022 -12.2974 31.6718
rtibia 61.6845
rfoot 3.43687 -9.40634
rtoes 0.538821
lfemur -33.0633 -5.61154 -14.9049
ltibia 28.4242
lfoot -4.71629 2.40535
ltoes 5.06741
219
root 13.5588 17.5983 3.00685 34.6947 -71.8007 -24.5864
lowerback 2.5708 5.91885 -0.285213
upperback 0.956589 7.85559 -1.21528
thorax -0.316232 3.92155 -1.29603
lowerneck -17.0834 -7.52018 -11.0237
upperneck 5.86521 -9.63701 16.4095
head 5.9704 -3.94846 6.0243
rclavicle 1.11319e-014 -3.97569e-015
rhumerus -15.984 40.1121 -99.7726
rradius 79.0876
rwrist -28.1596
rhand -11.6633 -44.0498
rfingers 7.12502
rthumb 14.3815 -73.5316
lclavicle 1.11319e-014 -3.97569e-015
lhumerus -45.5135 -19.5168 97.9009
lradius 91.8415
lwrist 36.5763
lhand 1.7784 25.5525
lfingers 7.12502
lthumb 27.2926 53.5972
rfemur -27.0725 -12.489 31.3609
rtibia 62.1037
rfoot 3.46128 -9.58412
rtoes 1.09108
lfemur -32.3707 -5.97901 -15.1794
ltibia 28.4112
lfoot -5.04761 2.00195
ltoes 5.2939
220
root 13.3929 17.6161 3.02428 33.2311 -71.3053 -23.1835
lowerback 2.62906 5.93794 -0.361245
upperback 0.957876 7.87823 -1.21523
thorax -0.357021 3.93247 -1.26246
lowerneck -17.017 -7.71927 -11.181
upperneck 5.8748 -9.89 16.4857
head 6.01104 -4.07189 6.04278
rclavicle -7.95139e-015 -1.19271e-014
rhumerus -15.9511 40.2029 -99.633
rradius 78.7441
rwrist -28.8966
rhand -11.2582 -44.1661
rfingers 7.12502
rthumb 14.7718 -73.6197
lclavicle -7.95139e-015 -1.19271e-014
lhumerus -45.5566 -19.1966 97.7487
lradius 90.7989
lwrist 36.3357
lhand 2.07794 25.4516
lfingers 7.12502
lthumb 27.5791 53.4509
rfemur -27.9426 -12.6736 31.0469
rtibia 62.4124
rfoot 3.41261 -9.75571
rtoes 1.64675
lfemur -31.6669 -6.33743 -15.4458
ltibia 28.3608
lfoot -5.4113 1.60836
ltoes 5.46697
221
root 13.2284 17.6338 3.04146 31.8479 -70.7905 -21.8523
lowerback 2.68551 5.95725 -0.43344
upperback 0.960968 7.90124 -1.2127
thorax -0.394831 3.94362 -1.2282
lowerneck -16.9481 -7.9217 -11.3374
upperneck 5.877 -10.1471 16.5593
head 6.04995 -4.19773 6.05937
rclavicle -2.00773e-014 8.74653e-015
rhumerus -15.8838 40.3394 -99.4371
rradius 78.4161
rwrist -29.5537
rhand -10.8235 -44.2178
rfingers 7.12502
rthumb 15.1905 -73.6402
lclavicle -2.00773e-014 8.74653e-015
lhumerus -45.5775 -18.8435 97.5699
lradius 89.7253
lwrist 36.0789
lhand 2.37072 25.3735
lfingers 7.12502
lthumb 27.8591 53.3277
rfemur -28.8062 -12.8504 30.731
rtibia 62.6051
rfoot 3.29394 -9.92142
rtoes 2.19588
lfemur -30.9512 -6.67879 -15.7027
ltibia 28.2741
lfoot -5.79184 1.21762
ltoes 5.61932
